<svg width="85" height="12" viewBox="0 0 85 12" fill="none" xmlns="http://www.w3.org/2000/svg">
<path d="M0.749805 0.499999L4.46981 11H5.36981L8.23481 2.795H8.30981L11.0848 11H11.9698L15.6898 0.499999H14.9998L11.8948 9.26H11.8348L8.9098 0.499999H8.2648L5.2798 9.215H5.2198L2.1298 0.499999H0.749805ZM23.9948 7.58V7.265C23.9948 6.595 23.8998 6.015 23.7098 5.525C23.5198 5.035 23.2598 4.63 22.9298 4.31C22.6098 3.99 22.2348 3.75 21.8048 3.59C21.3748 3.43 20.9198 3.35 20.4398 3.35C19.9298 3.35 19.4598 3.44 19.0298 3.62C18.5998 3.79 18.2248 4.045 17.9048 4.385C17.5848 4.715 17.3348 5.12 17.1548 5.6C16.9748 6.07 16.8848 6.605 16.8848 7.205C16.8848 7.705 16.9598 8.195 17.1098 8.675C17.2698 9.145 17.5048 9.57 17.8148 9.95C18.1348 10.32 18.5348 10.62 19.0148 10.85C19.5048 11.07 20.0798 11.18 20.7398 11.18C21.3798 11.18 21.9698 11.07 22.5098 10.85C23.0498 10.62 23.5198 10.295 23.9198 9.875L23.4398 9.395C23.2298 9.575 23.0298 9.74 22.8398 9.89C22.6598 10.04 22.4748 10.165 22.2848 10.265C22.0948 10.365 21.8948 10.445 21.6848 10.505C21.4848 10.555 21.2598 10.58 21.0098 10.58C20.7298 10.58 20.4298 10.54 20.1098 10.46C19.7998 10.37 19.5098 10.215 19.2398 9.995C18.9698 9.775 18.7448 9.47 18.5648 9.08C18.3848 8.69 18.2948 8.19 18.2948 7.58H23.9948ZM18.2948 6.98C18.2948 6.58 18.3348 6.195 18.4148 5.825C18.5048 5.445 18.6348 5.11 18.8048 4.82C18.9848 4.53 19.2098 4.3 19.4798 4.13C19.7498 3.95 20.0698 3.86 20.4398 3.86C21.1498 3.86 21.6998 4.14 22.0898 4.7C22.4898 5.25 22.6898 6.01 22.6898 6.98H18.2948ZM25.948 0.499999H27.223V4.73H27.283C27.383 4.47 27.513 4.255 27.673 4.085C27.843 3.905 28.033 3.76 28.243 3.65C28.453 3.54 28.673 3.46 28.903 3.41C29.143 3.36 29.383 3.335 29.623 3.335C30.123 3.335 30.583 3.43 31.003 3.62C31.423 3.8 31.783 4.06 32.083 4.4C32.393 4.74 32.633 5.15 32.803 5.63C32.973 6.11 33.058 6.645 33.058 7.235C33.058 7.835 32.973 8.38 32.803 8.87C32.633 9.35 32.393 9.765 32.083 10.115C31.783 10.455 31.423 10.72 31.003 10.91C30.583 11.09 30.123 11.18 29.623 11.18C28.433 11.18 27.653 10.715 27.283 9.785H27.223V11H25.948V0.499999ZM27.223 8C27.223 8.33 27.273 8.645 27.373 8.945C27.483 9.235 27.633 9.49 27.823 9.71C28.013 9.92 28.233 10.09 28.483 10.22C28.743 10.34 29.018 10.4 29.308 10.4C29.618 10.4 29.913 10.345 30.193 10.235C30.483 10.115 30.733 9.93 30.943 9.68C31.153 9.43 31.318 9.105 31.438 8.705C31.568 8.305 31.633 7.825 31.633 7.265C31.633 6.695 31.568 6.21 31.438 5.81C31.318 5.41 31.148 5.085 30.928 4.835C30.718 4.575 30.473 4.39 30.193 4.28C29.913 4.16 29.618 4.1 29.308 4.1C29.028 4.1 28.763 4.16 28.513 4.28C28.263 4.39 28.043 4.56 27.853 4.79C27.663 5.01 27.508 5.28 27.388 5.6C27.278 5.92 27.223 6.285 27.223 6.695V8ZM39.5999 8.345C39.6199 8.775 39.7299 9.165 39.9299 9.515C40.1399 9.865 40.4199 10.165 40.7699 10.415C41.1299 10.655 41.5499 10.845 42.0299 10.985C42.5099 11.115 43.0349 11.18 43.6049 11.18C44.1849 11.18 44.7049 11.11 45.1649 10.97C45.6349 10.83 46.0349 10.63 46.3649 10.37C46.6949 10.11 46.9499 9.795 47.1299 9.425C47.3099 9.055 47.3999 8.645 47.3999 8.195C47.3999 7.575 47.2449 7.07 46.9349 6.68C46.6249 6.28 46.2349 5.95 45.7649 5.69C45.3049 5.42 44.7999 5.195 44.2499 5.015C43.7099 4.835 43.2049 4.645 42.7349 4.445C42.2749 4.245 41.8899 4.015 41.5799 3.755C41.2699 3.495 41.1149 3.15 41.1149 2.72C41.1149 2.48 41.1649 2.255 41.2649 2.045C41.3749 1.835 41.5299 1.655 41.7299 1.505C41.9399 1.345 42.1949 1.22 42.4949 1.13C42.7949 1.03 43.1399 0.979999 43.5299 0.979999C44.1799 0.979999 44.7299 1.12 45.1799 1.4C45.6399 1.67 45.9099 2.1 45.9899 2.69H47.0099C46.9499 2.32 46.8149 1.99 46.6049 1.7C46.3949 1.4 46.1299 1.15 45.8099 0.95C45.4899 0.739999 45.1249 0.584999 44.7149 0.484999C44.3149 0.375 43.8949 0.32 43.4549 0.32C42.9949 0.32 42.5549 0.38 42.1349 0.499999C41.7249 0.62 41.3599 0.795 41.0399 1.025C40.7299 1.255 40.4799 1.545 40.2899 1.895C40.1099 2.245 40.0199 2.645 40.0199 3.095C40.0199 3.685 40.1699 4.16 40.4699 4.52C40.7699 4.88 41.1449 5.18 41.5949 5.42C42.0549 5.66 42.5499 5.865 43.0799 6.035C43.6099 6.205 44.0999 6.4 44.5499 6.62C45.0099 6.83 45.3899 7.09 45.6899 7.4C45.9899 7.71 46.1399 8.125 46.1399 8.645C46.1399 9.295 45.8999 9.77 45.4199 10.07C44.9499 10.37 44.3199 10.52 43.5299 10.52C42.8999 10.52 42.3949 10.44 42.0149 10.28C41.6349 10.11 41.3449 9.91 41.1449 9.68C40.9449 9.45 40.8099 9.215 40.7399 8.975C40.6699 8.725 40.6299 8.515 40.6199 8.345H39.5999ZM48.8699 4.1V3.5H50.1749V1.19H51.4499V3.5H53.2649V4.1H51.4499V9.08C51.4499 9.2 51.4549 9.34 51.4649 9.5C51.4749 9.65 51.5049 9.795 51.5549 9.935C51.6049 10.065 51.6799 10.175 51.7799 10.265C51.8899 10.355 52.0399 10.4 52.2299 10.4C52.4699 10.4 52.6699 10.31 52.8299 10.13C52.9899 9.95 53.1199 9.755 53.2199 9.545L53.9249 10.265C53.4349 10.755 52.8799 11 52.2599 11C51.9999 11 51.7449 10.955 51.4949 10.865C51.2449 10.775 51.0199 10.64 50.8199 10.46C50.6299 10.27 50.4749 10.03 50.3549 9.74C50.2349 9.45 50.1749 9.11 50.1749 8.72V4.1H48.8699ZM55.2449 3.5V8.375C55.2449 8.555 55.2599 8.805 55.2899 9.125C55.3299 9.435 55.4349 9.745 55.6049 10.055C55.7749 10.355 56.0399 10.62 56.3999 10.85C56.7699 11.07 57.2849 11.18 57.9449 11.18C58.2349 11.19 58.5499 11.13 58.8899 11C59.2399 10.88 59.5899 10.645 59.9399 10.295L60.1799 10.055H60.2399V11H61.5149V3.5H60.2399V8.15C60.2399 8.54 60.1849 8.875 60.0749 9.155C59.9649 9.435 59.8199 9.67 59.6399 9.86C59.4599 10.04 59.2499 10.175 59.0099 10.265C58.7699 10.355 58.5199 10.4 58.2599 10.4C57.8399 10.4 57.5099 10.32 57.2699 10.16C57.0399 9.99 56.8649 9.795 56.7449 9.575C56.6349 9.355 56.5699 9.14 56.5499 8.93C56.5299 8.71 56.5199 8.55 56.5199 8.45V3.5H55.2449ZM70.6207 0.499999H69.3457V4.73H69.2857C69.1857 4.47 69.0507 4.255 68.8807 4.085C68.7207 3.905 68.5357 3.76 68.3257 3.65C68.1157 3.54 67.8907 3.46 67.6507 3.41C67.4207 3.36 67.1857 3.335 66.9457 3.335C66.4457 3.335 65.9857 3.43 65.5657 3.62C65.1457 3.8 64.7807 4.06 64.4707 4.4C64.1707 4.74 63.9357 5.15 63.7657 5.63C63.5957 6.11 63.5107 6.645 63.5107 7.235C63.5107 7.835 63.5957 8.38 63.7657 8.87C63.9357 9.35 64.1707 9.765 64.4707 10.115C64.7807 10.455 65.1457 10.72 65.5657 10.91C65.9857 11.09 66.4457 11.18 66.9457 11.18C68.1257 11.18 68.9057 10.715 69.2857 9.785H69.3457V11H70.6207V0.499999ZM69.3457 8C69.3457 8.33 69.2907 8.645 69.1807 8.945C69.0707 9.235 68.9207 9.49 68.7307 9.71C68.5507 9.92 68.3307 10.09 68.0707 10.22C67.8207 10.34 67.5507 10.4 67.2607 10.4C66.9407 10.4 66.6407 10.345 66.3607 10.235C66.0807 10.115 65.8357 9.93 65.6257 9.68C65.4157 9.43 65.2457 9.105 65.1157 8.705C64.9957 8.305 64.9357 7.825 64.9357 7.265C64.9357 6.695 64.9957 6.21 65.1157 5.81C65.2457 5.41 65.4157 5.085 65.6257 4.835C65.8457 4.575 66.0957 4.39 66.3757 4.28C66.6557 4.16 66.9507 4.1 67.2607 4.1C67.5407 4.1 67.8057 4.16 68.0557 4.28C68.3057 4.39 68.5257 4.56 68.7157 4.79C68.9057 5.01 69.0557 5.28 69.1657 5.6C69.2857 5.92 69.3457 6.285 69.3457 6.695V8ZM73.4935 3.5V11H74.7685V3.5H73.4935ZM73.3135 1.13C73.3135 1.35 73.3935 1.54 73.5535 1.7C73.7135 1.86 73.9035 1.94 74.1235 1.94C74.3435 1.94 74.5335 1.86 74.6935 1.7C74.8535 1.54 74.9335 1.35 74.9335 1.13C74.9335 0.91 74.8535 0.72 74.6935 0.559999C74.5335 0.4 74.3435 0.32 74.1235 0.32C73.9035 0.32 73.7135 0.4 73.5535 0.559999C73.3935 0.72 73.3135 0.91 73.3135 1.13ZM84.9477 7.265C84.9477 7.785 84.8577 8.285 84.6777 8.765C84.4977 9.235 84.2377 9.65 83.8977 10.01C83.5677 10.37 83.1627 10.655 82.6827 10.865C82.2127 11.075 81.6827 11.18 81.0927 11.18C80.4927 11.18 79.9477 11.075 79.4577 10.865C78.9777 10.645 78.5677 10.355 78.2277 9.995C77.8977 9.635 77.6377 9.22 77.4477 8.75C77.2677 8.27 77.1777 7.775 77.1777 7.265C77.1777 6.745 77.2677 6.25 77.4477 5.78C77.6377 5.3 77.8977 4.88 78.2277 4.52C78.5677 4.16 78.9777 3.875 79.4577 3.665C79.9477 3.445 80.4927 3.335 81.0927 3.335C81.6827 3.335 82.2127 3.445 82.6827 3.665C83.1627 3.875 83.5677 4.16 83.8977 4.52C84.2377 4.88 84.4977 5.3 84.6777 5.78C84.8577 6.25 84.9477 6.745 84.9477 7.265ZM83.5227 7.265C83.5227 6.565 83.4477 6 83.2977 5.57C83.1477 5.13 82.9527 4.79 82.7127 4.55C82.4727 4.31 82.2077 4.15 81.9177 4.07C81.6277 3.98 81.3477 3.935 81.0777 3.935C80.8077 3.935 80.5277 3.98 80.2377 4.07C79.9477 4.15 79.6777 4.31 79.4277 4.55C79.1877 4.79 78.9877 5.13 78.8277 5.57C78.6777 6 78.6027 6.565 78.6027 7.265C78.6027 7.955 78.6777 8.52 78.8277 8.96C78.9877 9.39 79.1877 9.725 79.4277 9.965C79.6777 10.205 79.9477 10.37 80.2377 10.46C80.5277 10.54 80.8077 10.58 81.0777 10.58C81.3477 10.58 81.6277 10.54 81.9177 10.46C82.2077 10.37 82.4727 10.205 82.7127 9.965C82.9527 9.725 83.1477 9.39 83.2977 8.96C83.4477 8.52 83.5227 7.955 83.5227 7.265Z" fill="white"/>
</svg>
